<svg xmlns="http://www.w3.org/2000/svg" viewBox="0 0 512 512">
  <rect width="512" height="512" fill="#17191a" />
  <g stroke="#ffffff" stroke-opacity="0.16" stroke-width="3">
    <rect x="112" y="112" width="80" height="80" rx="14" fill="#e9684f" />
    <rect x="216" y="112" width="80" height="80" rx="14" fill="#efae4c" />
    <rect x="320" y="112" width="80" height="80" rx="14" fill="#ead45f" />
    <rect x="112" y="216" width="80" height="80" rx="14" fill="#78b968" />
    <rect x="216" y="216" width="80" height="80" rx="14" fill="#4da894" />
    <rect x="320" y="216" width="80" height="80" rx="14" fill="#55a8c5" />
    <rect x="112" y="320" width="80" height="80" rx="14" fill="#557ed8" />
    <rect x="216" y="320" width="80" height="80" rx="14" fill="#765dc8" />
    <rect x="320" y="320" width="80" height="80" rx="14" fill="#a65abe" />
  </g>
  <g fill="#ffffff">
    <rect x="236" y="246" width="8" height="20" rx="4" />
    <rect x="252" y="232" width="8" height="48" rx="4" />
    <rect x="268" y="240" width="8" height="32" rx="4" />
  </g>
</svg>
